<?xml version="1.0" encoding="UTF-8" standalone="no"?>
<svg width="78px" height="91px" viewBox="0 0 78 91" version="1.1" xmlns="http://www.w3.org/2000/svg" xmlns:xlink="http://www.w3.org/1999/xlink">
    <!-- Generator: sketchtool 40.1 (33804) - http://www.bohemiancoding.com/sketch -->
    <title>267F387E-0DF6-4243-A498-C234C593AC1C</title>
    <desc>Created with sketchtool.</desc>
    <defs>
        <path d="M36.2004706,81.5437597 C46.9641755,81.5437597 55.6898824,72.8236896 55.6898824,62.066938 C55.6898824,51.3101864 46.9641755,42.5901163 36.2004706,42.5901163 C25.4367657,42.5901163 16.7110588,51.3101864 16.7110588,62.066938 C16.7110588,72.8236896 25.4367657,81.5437597 36.2004706,81.5437597 Z" id="path-1"></path>
        <mask id="mask-2" maskContentUnits="userSpaceOnUse" maskUnits="objectBoundingBox" x="0" y="0" width="38.9788235" height="38.9536434" fill="white">
            <use xlink:href="#path-1"></use>
        </mask>
        <rect id="path-3" x="49" y="17" width="29" height="29" rx="14.5"></rect>
        <mask id="mask-4" maskContentUnits="userSpaceOnUse" maskUnits="objectBoundingBox" x="0" y="0" width="29" height="29" fill="white">
            <use xlink:href="#path-3"></use>
        </mask>
    </defs>
    <g id="Page-1" stroke="none" stroke-width="1" fill="none" fill-rule="evenodd">
        <g id="Add-Money-to-account" transform="translate(-284.000000, -133.000000)">
            <g id="Group-3" transform="translate(284.000000, 133.000000)">
                <g id="money-bag">
                    <g id="Group">
                        <g transform="translate(16.235294, 0.000000)" id="Shape">
                            <path d="M19.9658824,30.4215116 C16.7590588,30.4215116 13.9644706,28.6967442 12.4383529,26.1275814 C12.4369412,26.1247597 12.4341176,26.1233488 12.4327059,26.121938 L4.03835294,17.7308915 C0.617647059,14.3138062 0.617647059,8.7762093 4.03835294,5.35912403 C6.68258824,2.71448062 10.5896471,2.14096899 13.8105882,3.58779845 C15.3917647,2.02457364 17.5644706,1.05813953 19.9658824,1.05813953 C22.3658824,1.05813953 24.5378824,2.02457364 26.1190588,3.5892093 C29.3407059,2.14096899 33.2498824,2.71448062 35.8941176,5.35700775 C39.3134118,8.7762093 39.3134118,14.3138062 35.8941176,17.7323023 L27.4976471,26.121938 C27.4948235,26.1247597 27.492,26.126876 27.4891765,26.1289922 C25.9630588,28.6967442 23.1684706,30.4215116 19.9658824,30.4215116 L19.9658824,30.4215116 Z" fill="#E8E8ED"></path>
                            <path d="M12.4327059,26.121938 L13.8084706,26.7166124 L4.03835294,17.7308915 C0.617647059,14.3138062 0.617647059,8.7762093 4.03835294,5.35912403 C5.436,3.95885271 7.19435294,3.15607752 9.01411765,2.91129457 C10.8338824,3.15607752 12.5887059,3.95814729 13.9898824,5.35700775 C17.4070588,8.77550388 15.8505882,22.7048527 12.4327059,26.121938 L12.4327059,26.121938 Z" fill="#FFFFFF"></path>
                            <path d="M19.9658824,31.4796512 C16.5698824,31.4796512 13.3764706,29.6843411 11.5983529,26.7850388 L3.28941176,18.4786434 C1.43505882,16.6268992 0.413647059,14.1635504 0.413647059,11.5443023 C0.413647059,8.92505426 1.43505882,6.46241085 3.28941176,4.60996124 C5.97388235,1.92581395 10.0327059,1.06025581 13.5861176,2.3554186 C15.3642353,0.831697674 17.6032941,0 19.9658824,0 C22.3277647,0 24.5661176,0.832403101 26.3428235,2.35682946 C29.8983529,1.06096124 33.9578824,1.92510853 36.6423529,4.60855039 C40.4675294,8.43337209 40.4675294,14.655938 36.6423529,18.4800543 L28.3270588,26.7899767 C26.5482353,29.6864574 23.3576471,31.4796512 19.9658824,31.4796512 L19.9658824,31.4796512 Z M13.3489412,25.5872248 C14.7536471,27.951814 17.2270588,29.3633721 19.9658824,29.3633721 C22.7018824,29.3633721 25.1738824,27.9525194 26.5792941,25.5886357 C26.6322353,25.5004574 26.6971765,25.4193333 26.7734118,25.3502016 L35.1451765,16.9845504 C38.1451765,13.9857829 38.1451765,9.10493798 35.1451765,6.10546512 C32.8757647,3.83751938 29.5030588,3.22873643 26.5538824,4.55493798 C26.1536471,4.73482171 25.6856471,4.64946512 25.3750588,4.34189922 C23.9237647,2.90635659 22.0030588,2.11627907 19.9658824,2.11627907 C17.9272941,2.11627907 16.0051765,2.90635659 14.5545882,4.33978295 C14.244,4.64734884 13.7752941,4.732 13.3764706,4.55282171 C10.4265882,3.22803101 7.056,3.83822481 4.78729412,6.10687597 C3.33247059,7.56005426 2.532,9.49151163 2.532,11.5450078 C2.532,13.5985039 3.33317647,15.5299612 4.78729412,16.9824341 L13.1710588,25.3628992 C13.2395294,25.4292093 13.3002353,25.5053953 13.3489412,25.5872248 L13.3489412,25.5872248 L13.3489412,25.5872248 Z" fill="#33363A"></path>
                        </g>
                        <path d="M70.9327059,69.0379612 C70.9327059,86.8020078 55.3828235,89.6385271 36.2011765,89.6385271 C17.0195294,89.6385271 1.46964706,86.8020078 1.46964706,69.0379612 C1.46964706,51.2739147 17.0195294,30.2007132 36.2011765,30.2007132 C55.3828235,30.2007132 70.9327059,51.2746202 70.9327059,69.0379612 L70.9327059,69.0379612 Z" id="Shape" fill="#FFFFFF"></path>
                        <path d="M40.4872941,30.5675349 C23.3301176,33.3878295 10.0425882,52.6198682 10.0425882,69.0379612 C10.0425882,85.4560543 23.3301176,89.1207442 40.488,89.5813876 C57.6458824,89.1207442 70.9334118,85.4560543 70.9334118,69.0379612 C70.9334118,52.6198682 57.6451765,33.3878295 40.4872941,30.5675349 L40.4872941,30.5675349 Z" id="Shape" fill="#E8E8ED"></path>
                        <path d="M36.2011765,90.6966667 C17.6124706,90.6966667 0.410823529,88.0724806 0.410823529,69.0379612 C0.410823529,50.9677597 16.3757647,29.1425736 36.2011765,29.1425736 C56.0265882,29.1425736 71.9915294,50.9677597 71.9915294,69.0379612 C71.9915294,88.073186 54.7898824,90.6966667 36.2011765,90.6966667 L36.2011765,90.6966667 Z M36.2011765,31.2595581 C17.5489412,31.2595581 2.52847059,51.9264341 2.52847059,69.0386667 C2.52847059,85.2578295 15.9896471,88.581093 36.2011765,88.581093 C56.4127059,88.581093 69.8738824,85.2578295 69.8738824,69.0386667 C69.8738824,51.9264341 54.8534118,31.2595581 36.2011765,31.2595581 L36.2011765,31.2595581 Z" id="Shape" fill="#33363A"></path>
                        <path d="M50.7670588,30.7290775 C50.7670588,32.9448217 48.9705882,34.7408372 46.7541176,34.7408372 L25.6482353,34.7408372 C23.4310588,34.7408372 21.6345882,32.9448217 21.6345882,30.7290775 L21.6345882,30.7290775 C21.6345882,28.5133333 23.4310588,26.7166124 25.6482353,26.7166124 L46.7541176,26.7166124 C48.9705882,26.7166124 50.7670588,28.5133333 50.7670588,30.7290775 L50.7670588,30.7290775 L50.7670588,30.7290775 Z" id="Shape" fill="#FFE0AD"></path>
                        <path d="M50.7670588,30.7290775 L50.7670588,30.7290775 C50.7670588,32.9448217 48.9705882,34.7408372 46.7541176,34.7408372 L25.6482353,34.7408372 C23.4310588,34.7408372 21.6345882,32.9448217 21.6345882,30.7290775 L21.6345882,30.7290775" id="Shape" fill="#FFBF56"></path>
                        <path d="M46.7534118,25.6584729 L37.7675294,25.6584729 L40.6376471,22.7902093 C41.0512941,22.3775349 41.0512941,21.7066744 40.6376471,21.294 C40.224,20.8806202 39.5541176,20.8806202 39.1404706,21.294 L36.1997647,24.2328062 L33.2604706,21.294 C32.8468235,20.8806202 32.1762353,20.8813256 31.7625882,21.294 C31.3489412,21.7073798 31.3489412,22.3775349 31.7625882,22.7909147 L34.632,25.6591783 L25.6475294,25.6591783 C22.8508235,25.6591783 20.5750588,27.9334729 20.5750588,30.7297829 C20.5750588,33.5253876 22.8508235,35.7996822 25.6475294,35.7996822 L46.7534118,35.7996822 C49.5501176,35.7996822 51.8258824,33.5253876 51.8258824,30.7297829 C51.8258824,27.9327674 49.5501176,25.6584729 46.7534118,25.6584729 L46.7534118,25.6584729 Z M46.7534118,33.6819922 L25.6475294,33.6819922 C24.0183529,33.6819922 22.6927059,32.3572016 22.6927059,30.7283721 C22.6927059,29.0995426 24.0176471,27.7740465 25.6475294,27.7740465 L46.7534118,27.7740465 C48.3825882,27.7740465 49.7082353,29.0988372 49.7082353,30.7283721 C49.7082353,32.3572016 48.3825882,33.6819922 46.7534118,33.6819922 L46.7534118,33.6819922 Z" id="Shape" fill="#33363A"></path>
                        <path d="M18.1863529,66.8236279 C18.1863529,64.2960853 20.2362353,62.2475271 22.7647059,62.2475271 C24.1185882,62.2475271 25.3305882,62.8386744 26.1684706,63.7719535 C25.7590588,61.6662558 23.9047059,60.074814 21.6769412,60.074814 C19.1484706,60.074814 17.0985882,62.1233721 17.0985882,64.6502093 C17.0985882,65.8240388 17.5454118,66.8920543 18.2717647,67.7011783 C18.2167059,67.4168915 18.1863529,67.1234341 18.1863529,66.8236279 L18.1863529,66.8236279 Z" id="Shape" fill="#FFF1D9"></path>
                        <path d="M14.3894118,75.2245504 C15.3776471,72.8980543 18.0649412,71.8131085 20.3936471,72.7992946 C21.6402353,73.3283643 22.5254118,74.3448837 22.932,75.5321163 C23.3774118,73.4327674 22.2924706,71.2445349 20.2425882,70.3747442 C17.9138824,69.3878527 15.2265882,70.4735039 14.2397647,72.7992946 C13.7795294,73.8800078 13.7738824,75.036907 14.1268235,76.066124 C14.1868235,75.7832481 14.2722353,75.5010775 14.3894118,75.2245504 L14.3894118,75.2245504 Z" id="Shape" fill="#FFFFFF"></path>
                        <path d="M20.1303529,52.9401318 C20.1303529,51.4227597 21.3614118,50.1917907 22.8797647,50.1917907 C23.6915294,50.1917907 24.4214118,50.5466202 24.924,51.1074341 C24.6769412,49.8426047 23.5630588,48.8874574 22.2261176,48.8874574 C20.7084706,48.8874574 19.4767059,50.1170155 19.4767059,51.6357984 C19.4767059,52.3405194 19.7442353,52.9817519 20.1811765,53.4677907 C20.148,53.2970775 20.1303529,53.1207209 20.1303529,52.9401318 L20.1303529,52.9401318 Z" id="Shape" fill="#FFF1D9"></path>
                        <path d="M24.0981176,42.4934729 C24.9861176,41.2632093 26.7049412,40.9845659 27.9352941,41.8734031 C28.5945882,42.3488605 28.9778824,43.0627519 29.0576471,43.8112093 C29.5983529,42.6416124 29.2545882,41.2145349 28.1710588,40.4336279 C26.9385882,39.5447907 25.2204706,39.8227287 24.3317647,41.0536977 C23.9195294,41.6257984 23.7607059,42.3015969 23.8312941,42.9505891 C23.9032941,42.7939845 23.9915294,42.6394961 24.0981176,42.4934729 L24.0981176,42.4934729 Z" id="Shape" fill="#FFFFFF"></path>
                        <path d="M13.2409412,54.8652403 C14.1289412,53.6342713 15.8477647,53.3570388 17.0788235,54.2444651 C17.7367059,54.7206279 18.12,55.4345194 18.2011765,56.1829767 C18.7418824,55.0133798 18.3981176,53.5870078 17.3131765,52.8046899 C16.0821176,51.9172636 14.364,52.1944961 13.4745882,53.4254651 C13.0609412,53.9968605 12.9035294,54.6733643 12.9727059,55.3223566 C13.0475294,55.1650465 13.1343529,55.011969 13.2409412,54.8652403 L13.2409412,54.8652403 Z" id="Shape" fill="#FFFFFF"></path>
                        <path d="M33.1207059,14.2446744 C32.9724706,14.2446744 32.8221176,14.2136357 32.6788235,14.148031 C32.148,13.9039535 31.9150588,13.276124 32.1592941,12.7456434 C32.3047059,12.4303178 35.7790588,4.99512403 41.9724706,2.60302326 C42.5167059,2.39068992 43.1308235,2.6629845 43.3418824,3.20827907 C43.5529412,3.75357364 43.2818824,4.36658915 42.7362353,4.5768062 C37.3524706,6.65569767 34.1152941,13.5597054 34.0835294,13.6288372 C33.9042353,14.0161163 33.5209412,14.2446744 33.1207059,14.2446744 L33.1207059,14.2446744 Z" id="Shape" fill="#33363A"></path>
                        <path d="M26.3110588,10.4092713 C26.22,10.4092713 26.1268235,10.3972791 26.0343529,10.3725891 C25.4696471,10.2202171 25.1357647,9.63894574 25.2882353,9.07531008 C25.3404706,8.88131783 26.6110588,4.29886822 29.9512941,2.31662016 C30.4538824,2.01822481 31.1032941,2.184 31.4025882,2.68626357 C31.7011765,3.18852713 31.5352941,3.83751938 31.0327059,4.13662016 C28.4230588,5.68503101 27.3437647,9.58744961 27.3331765,9.62695349 C27.2054118,10.0981783 26.7783529,10.4092713 26.3110588,10.4092713 L26.3110588,10.4092713 Z" id="Shape" fill="#33363A"></path>
                        <use id="Oval" stroke="#2E2F2F" mask="url(#mask-2)" stroke-width="4" fill="#FFBF55" xlink:href="#path-1"></use>
                    </g>
                </g>
                <g id="indian-rupee" transform="translate(32.000000, 56.000000)" stroke="#003333" fill="#354C54">
                    <path d="M7.73125292,2.76636364 L5.95592218,2.76636364 C5.83752529,1.72240909 5.3391751,0.970272727 4.69543969,0.510666667 L7.73126848,0.510666667 C7.87589105,0.510666667 7.99355642,0.396136364 7.99355642,0.255333333 C7.99354086,0.114545455 7.87587549,0 7.73125292,0 L0.268747082,0 C0.124108949,0 0.00645914397,0.114545455 0.00645914397,0.255333333 C0.00645914397,0.396136364 0.124108949,0.510666667 0.268747082,0.510666667 L3.44094942,0.510666667 C4.28851362,0.663136364 5.25374319,1.34962121 5.43210895,2.76636364 L0.268747082,2.76636364 C0.124108949,2.76636364 0.00645914397,2.88090909 0.00645914397,3.02171212 C0.00645914397,3.1625 0.124108949,3.27704545 0.268747082,3.27704545 L5.46582101,3.27704545 C5.45533074,3.98687879 5.20578988,4.5624697 4.7164358,4.98706061 C3.32929183,6.18713636 0.497322957,5.88072727 0.469603113,5.87854545 C0.364684825,5.86833333 0.257525292,5.91939394 0.207315175,6.01277273 C0.156357977,6.10542424 0.169836576,6.21922727 0.24029572,6.29948485 L5.22004669,11.9117273 C5.27175097,11.9700909 5.34518288,12 5.41863035,12 C5.47933074,12 5.54079377,11.9795758 5.59024125,11.9379848 C5.69964202,11.8460758 5.71164202,11.6848485 5.61721401,11.5776061 L1.0458677,6.42568182 C2.03207782,6.4505 3.92205447,6.35783333 5.06414008,5.36933333 C5.67041245,4.84480303 5.97990661,4.13934848 5.99039689,3.27704545 L7.73126848,3.27704545 C7.87589105,3.27704545 7.99355642,3.1625 7.99355642,3.02171212 C7.99354086,2.88090909 7.87663813,2.76636364 7.73125292,2.76636364 L7.73125292,2.76636364 Z" id="Shape"></path>
                </g>
                <use id="Rectangle-8" stroke="#314E55" mask="url(#mask-4)" stroke-width="2" fill="#1ABC9C" xlink:href="#path-3"></use>
                <g id="Group-2" transform="translate(64.000000, 32.000000) rotate(44.000000) translate(-64.000000, -32.000000) translate(59.000000, 27.000000)" stroke="#FFFFFF" stroke-width="2" stroke-linecap="round" stroke-linejoin="round">
                    <path d="M0.401377622,0.400944056 L9.59840559,9.59797203" id="Stroke-3"></path>
                    <path d="M0.0181048951,9.75774126 L9.21513287,0.560713287" id="Stroke-5"></path>
                </g>
            </g>
        </g>
    </g>
</svg>